<svg width="1060" height="280" viewBox="0 0 1060 280" fill="none" xmlns="http://www.w3.org/2000/svg">
<rect width="1060" height="280" rx="15" fill="#84F0FF" fill-opacity="0.1"/>
<rect width="1060" height="280" rx="15" fill="url(#paint0_linear_61598_61)"/>
<path d="M226.582 120.185C226.185 116.463 224.509 113.565 221.554 111.491C218.628 109.418 214.821 108.381 210.134 108.381C206.838 108.381 204.011 108.878 201.653 109.872C199.295 110.866 197.491 112.216 196.241 113.92C194.991 115.625 194.352 117.571 194.324 119.759C194.324 121.577 194.736 123.153 195.56 124.489C196.412 125.824 197.563 126.96 199.011 127.898C200.46 128.807 202.065 129.574 203.827 130.199C205.588 130.824 207.364 131.349 209.153 131.776L217.335 133.821C220.631 134.588 223.798 135.625 226.838 136.932C229.906 138.239 232.648 139.886 235.062 141.875C237.506 143.864 239.438 146.264 240.858 149.077C242.278 151.889 242.989 155.185 242.989 158.963C242.989 164.077 241.682 168.58 239.068 172.472C236.455 176.335 232.676 179.361 227.733 181.548C222.818 183.707 216.866 184.787 209.878 184.787C203.088 184.787 197.193 183.736 192.193 181.634C187.222 179.531 183.33 176.463 180.517 172.429C177.733 168.395 176.227 163.48 176 157.685H191.554C191.781 160.724 192.719 163.253 194.366 165.27C196.014 167.287 198.159 168.793 200.801 169.787C203.472 170.781 206.455 171.278 209.75 171.278C213.188 171.278 216.199 170.767 218.784 169.744C221.398 168.693 223.443 167.244 224.92 165.398C226.398 163.523 227.151 161.335 227.179 158.835C227.151 156.563 226.483 154.688 225.176 153.21C223.869 151.705 222.037 150.455 219.679 149.46C217.349 148.438 214.622 147.528 211.497 146.733L201.568 144.176C194.381 142.33 188.699 139.531 184.523 135.781C180.375 132.003 178.301 126.989 178.301 120.739C178.301 115.597 179.693 111.094 182.477 107.23C185.29 103.366 189.111 100.369 193.94 98.2386C198.77 96.0795 204.239 95 210.347 95C216.54 95 221.966 96.0795 226.625 98.2386C231.312 100.369 234.991 103.338 237.662 107.145C240.332 110.923 241.71 115.27 241.795 120.185H226.582Z" fill="#FFC323"/>
<path d="M328.802 96.1932V183.466H314.739L273.617 124.02H272.893V183.466H257.083V96.1932H271.231L312.31 155.682H313.077V96.1932H328.802Z" fill="#FFC323"/>
<path d="M357.236 183.466H340.361L371.085 96.1932H390.602L421.369 183.466H404.494L381.185 114.091H380.503L357.236 183.466ZM380.545 170.466L397.045 163.466H363.943L380.545 170.466Z" fill="#FFC323"/>
<path d="M432.864 183.466V96.1932H465.592C472.296 96.1932 477.921 97.4432 482.467 99.9432C487.04 102.443 490.492 105.881 492.822 110.256C495.18 114.602 496.359 119.545 496.359 125.085C496.359 130.682 495.18 135.653 492.822 140C490.464 144.347 486.984 147.77 482.381 150.27C477.779 152.741 472.111 153.977 465.379 153.977H448.674V140.98H463.248C467.168 140.98 470.379 140.298 472.879 138.935C475.379 137.571 477.225 135.696 478.418 133.31C479.64 130.923 480.251 128.182 480.251 125.085C480.251 121.989 479.64 119.261 478.418 116.903C477.225 114.545 475.364 112.713 472.836 111.406C470.336 110.071 467.111 109.403 463.163 109.403H448.674V183.466H432.864Z" fill="#FFC323"/>
<path d="M584.793 125.639H568.855C568.401 123.026 567.563 120.71 566.341 118.693C565.119 116.648 563.599 114.915 561.781 113.494C559.963 112.074 557.889 111.009 555.56 110.298C553.259 109.56 550.773 109.19 548.102 109.19C543.358 109.19 539.153 110.384 535.489 112.77C531.824 115.128 528.955 118.594 526.881 123.168C524.807 127.713 523.77 133.267 523.77 139.83C523.77 146.506 524.807 152.131 526.881 156.705C528.983 161.25 531.852 164.687 535.489 167.017C539.153 169.318 543.344 170.469 548.06 170.469C550.673 170.469 553.116 170.128 555.389 169.446C557.69 168.736 559.75 167.699 561.568 166.335C563.415 164.972 564.963 163.295 566.213 161.307C567.491 159.318 568.372 157.045 568.855 154.489L584.793 154.574C584.196 158.722 582.903 162.614 580.915 166.25C578.955 169.886 576.384 173.097 573.202 175.881C570.02 178.636 566.298 180.795 562.037 182.358C557.776 183.892 553.045 184.659 547.847 184.659C540.176 184.659 533.33 182.884 527.307 179.332C521.284 175.781 516.54 170.653 513.074 163.949C509.608 157.244 507.875 149.205 507.875 139.83C507.875 130.426 509.622 122.386 513.116 115.71C516.611 109.006 521.369 103.878 527.392 100.327C533.415 96.7756 540.233 95 547.847 95C552.705 95 557.222 95.6818 561.398 97.0455C565.574 98.4091 569.295 100.412 572.562 103.054C575.83 105.668 578.514 108.878 580.616 112.685C582.747 116.463 584.139 120.781 584.793 125.639Z" fill="#FFC323"/>
<path d="M599.271 183.466V96.1932H615.08V170.213H653.518V183.466H599.271Z" fill="#FFC323"/>
<path d="M683.049 96.1932V183.466H667.239V96.1932H683.049Z" fill="#FFC323"/>
<path d="M700.169 96.1932H719.516L745.425 159.432H746.447L772.357 96.1932H791.703V183.466H776.533V123.509H775.723L751.604 183.21H740.268L716.149 123.381H715.339V183.466H700.169V96.1932Z" fill="#FFC323"/>
<path d="M820.126 183.466H803.251L833.976 96.1932H853.493L884.26 183.466H867.385L844.075 114.091H843.393L820.126 183.466ZM826.894 163.287H860.605L843.5 170.287L826.894 163.287Z" fill="#FFC323"/>
<path d="M226.582 120.185C226.185 116.463 224.509 113.565 221.554 111.491C218.628 109.418 214.821 108.381 210.134 108.381C206.838 108.381 204.011 108.878 201.653 109.872C199.295 110.866 197.491 112.216 196.241 113.92C194.991 115.625 194.352 117.571 194.324 119.759C194.324 121.577 194.736 123.153 195.56 124.489C196.412 125.824 197.563 126.96 199.011 127.898C200.46 128.807 202.065 129.574 203.827 130.199C205.588 130.824 207.364 131.349 209.153 131.776L217.335 133.821C220.631 134.588 223.798 135.625 226.838 136.932C229.906 138.239 232.648 139.886 235.062 141.875C237.506 143.864 239.438 146.264 240.858 149.077C242.278 151.889 242.989 155.185 242.989 158.963C242.989 164.077 241.682 168.58 239.068 172.472C236.455 176.335 232.676 179.361 227.733 181.548C222.818 183.707 216.866 184.787 209.878 184.787C203.088 184.787 197.193 183.736 192.193 181.634C187.222 179.531 183.33 176.463 180.517 172.429C177.733 168.395 176.227 163.48 176 157.685H191.554C191.781 160.724 192.719 163.253 194.366 165.27C196.014 167.287 198.159 168.793 200.801 169.787C203.472 170.781 206.455 171.278 209.75 171.278C213.188 171.278 216.199 170.767 218.784 169.744C221.398 168.693 223.443 167.244 224.92 165.398C226.398 163.523 227.151 161.335 227.179 158.835C227.151 156.563 226.483 154.688 225.176 153.21C223.869 151.705 222.037 150.455 219.679 149.46C217.349 148.438 214.622 147.528 211.497 146.733L201.568 144.176C194.381 142.33 188.699 139.531 184.523 135.781C180.375 132.003 178.301 126.989 178.301 120.739C178.301 115.597 179.693 111.094 182.477 107.23C185.29 103.366 189.111 100.369 193.94 98.2386C198.77 96.0795 204.239 95 210.347 95C216.54 95 221.966 96.0795 226.625 98.2386C231.312 100.369 234.991 103.338 237.662 107.145C240.332 110.923 241.71 115.27 241.795 120.185H226.582ZM328.802 96.1932V183.466H314.739L273.617 124.02H272.893V183.466H257.083V96.1932H271.231L312.31 155.682H313.077V96.1932H328.802ZM357.236 183.466H340.361L371.085 96.1932H390.602L421.369 183.466H404.494L381.185 114.091H380.503L357.236 183.466ZM380.545 170.466L397.045 163.466H363.943L380.545 170.466ZM432.864 183.466V96.1932H465.592C472.296 96.1932 477.921 97.4432 482.467 99.9432C487.04 102.443 490.492 105.881 492.822 110.256C495.18 114.602 496.359 119.545 496.359 125.085C496.359 130.682 495.18 135.653 492.822 140C490.464 144.347 486.984 147.77 482.381 150.27C477.779 152.741 472.111 153.977 465.379 153.977H448.674V140.98H463.248C467.168 140.98 470.379 140.298 472.879 138.935C475.379 137.571 477.225 135.696 478.418 133.31C479.64 130.923 480.251 128.182 480.251 125.085C480.251 121.989 479.64 119.261 478.418 116.903C477.225 114.545 475.364 112.713 472.836 111.406C470.336 110.071 467.111 109.403 463.163 109.403H448.674V183.466H432.864ZM584.793 125.639H568.855C568.401 123.026 567.563 120.71 566.341 118.693C565.119 116.648 563.599 114.915 561.781 113.494C559.963 112.074 557.889 111.009 555.56 110.298C553.259 109.56 550.773 109.19 548.102 109.19C543.358 109.19 539.153 110.384 535.489 112.77C531.824 115.128 528.955 118.594 526.881 123.168C524.807 127.713 523.77 133.267 523.77 139.83C523.77 146.506 524.807 152.131 526.881 156.705C528.983 161.25 531.852 164.687 535.489 167.017C539.153 169.318 543.344 170.469 548.06 170.469C550.673 170.469 553.116 170.128 555.389 169.446C557.69 168.736 559.75 167.699 561.568 166.335C563.415 164.972 564.963 163.295 566.213 161.307C567.491 159.318 568.372 157.045 568.855 154.489L584.793 154.574C584.196 158.722 582.903 162.614 580.915 166.25C578.955 169.886 576.384 173.097 573.202 175.881C570.02 178.636 566.298 180.795 562.037 182.358C557.776 183.892 553.045 184.659 547.847 184.659C540.176 184.659 533.33 182.884 527.307 179.332C521.284 175.781 516.54 170.653 513.074 163.949C509.608 157.244 507.875 149.205 507.875 139.83C507.875 130.426 509.622 122.386 513.116 115.71C516.611 109.006 521.369 103.878 527.392 100.327C533.415 96.7756 540.233 95 547.847 95C552.705 95 557.222 95.6818 561.398 97.0455C565.574 98.4091 569.295 100.412 572.562 103.054C575.83 105.668 578.514 108.878 580.616 112.685C582.747 116.463 584.139 120.781 584.793 125.639ZM599.271 183.466V96.1932H615.08V170.213H653.518V183.466H599.271ZM683.049 96.1932V183.466H667.239V96.1932H683.049ZM700.169 96.1932H719.516L745.425 159.432H746.447L772.357 96.1932H791.703V183.466H776.533V123.509H775.723L751.604 183.21H740.268L716.149 123.381H715.339V183.466H700.169V96.1932ZM820.126 183.466H803.251L833.976 96.1932H853.493L884.26 183.466H867.385L844.075 114.091H843.393L820.126 183.466ZM826.894 163.287H860.605L843.5 170.287L826.894 163.287Z" fill="#FFC323"/>
<path d="M226.582 120.185C226.185 116.463 224.509 113.565 221.554 111.491C218.628 109.418 214.821 108.381 210.134 108.381C206.838 108.381 204.011 108.878 201.653 109.872C199.295 110.866 197.491 112.216 196.241 113.92C194.991 115.625 194.352 117.571 194.324 119.759C194.324 121.577 194.736 123.153 195.56 124.489C196.412 125.824 197.563 126.96 199.011 127.898C200.46 128.807 202.065 129.574 203.827 130.199C205.588 130.824 207.364 131.349 209.153 131.776L217.335 133.821C220.631 134.588 223.798 135.625 226.838 136.932C229.906 138.239 232.648 139.886 235.062 141.875C237.506 143.864 239.438 146.264 240.858 149.077C242.278 151.889 242.989 155.185 242.989 158.963C242.989 164.077 241.682 168.58 239.068 172.472C236.455 176.335 232.676 179.361 227.733 181.548C222.818 183.707 216.866 184.787 209.878 184.787C203.088 184.787 197.193 183.736 192.193 181.634C187.222 179.531 183.33 176.463 180.517 172.429C177.733 168.395 176.227 163.48 176 157.685H191.554C191.781 160.724 192.719 163.253 194.366 165.27C196.014 167.287 198.159 168.793 200.801 169.787C203.472 170.781 206.455 171.278 209.75 171.278C213.188 171.278 216.199 170.767 218.784 169.744C221.398 168.693 223.443 167.244 224.92 165.398C226.398 163.523 227.151 161.335 227.179 158.835C227.151 156.563 226.483 154.688 225.176 153.21C223.869 151.705 222.037 150.455 219.679 149.46C217.349 148.438 214.622 147.528 211.497 146.733L201.568 144.176C194.381 142.33 188.699 139.531 184.523 135.781C180.375 132.003 178.301 126.989 178.301 120.739C178.301 115.597 179.693 111.094 182.477 107.23C185.29 103.366 189.111 100.369 193.94 98.2386C198.77 96.0795 204.239 95 210.347 95C216.54 95 221.966 96.0795 226.625 98.2386C231.312 100.369 234.991 103.338 237.662 107.145C240.332 110.923 241.71 115.27 241.795 120.185H226.582ZM328.802 96.1932V183.466H314.739L273.617 124.02H272.893V183.466H257.083V96.1932H271.231L312.31 155.682H313.077V96.1932H328.802ZM357.236 183.466H340.361L371.085 96.1932H390.602L421.369 183.466H404.494L381.185 114.091H380.503L357.236 183.466ZM380.545 170.466L397.045 163.466H363.943L380.545 170.466ZM432.864 183.466V96.1932H465.592C472.296 96.1932 477.921 97.4432 482.467 99.9432C487.04 102.443 490.492 105.881 492.822 110.256C495.18 114.602 496.359 119.545 496.359 125.085C496.359 130.682 495.18 135.653 492.822 140C490.464 144.347 486.984 147.77 482.381 150.27C477.779 152.741 472.111 153.977 465.379 153.977H448.674V140.98H463.248C467.168 140.98 470.379 140.298 472.879 138.935C475.379 137.571 477.225 135.696 478.418 133.31C479.64 130.923 480.251 128.182 480.251 125.085C480.251 121.989 479.64 119.261 478.418 116.903C477.225 114.545 475.364 112.713 472.836 111.406C470.336 110.071 467.111 109.403 463.163 109.403H448.674V183.466H432.864ZM584.793 125.639H568.855C568.401 123.026 567.563 120.71 566.341 118.693C565.119 116.648 563.599 114.915 561.781 113.494C559.963 112.074 557.889 111.009 555.56 110.298C553.259 109.56 550.773 109.19 548.102 109.19C543.358 109.19 539.153 110.384 535.489 112.77C531.824 115.128 528.955 118.594 526.881 123.168C524.807 127.713 523.77 133.267 523.77 139.83C523.77 146.506 524.807 152.131 526.881 156.705C528.983 161.25 531.852 164.687 535.489 167.017C539.153 169.318 543.344 170.469 548.06 170.469C550.673 170.469 553.116 170.128 555.389 169.446C557.69 168.736 559.75 167.699 561.568 166.335C563.415 164.972 564.963 163.295 566.213 161.307C567.491 159.318 568.372 157.045 568.855 154.489L584.793 154.574C584.196 158.722 582.903 162.614 580.915 166.25C578.955 169.886 576.384 173.097 573.202 175.881C570.02 178.636 566.298 180.795 562.037 182.358C557.776 183.892 553.045 184.659 547.847 184.659C540.176 184.659 533.33 182.884 527.307 179.332C521.284 175.781 516.54 170.653 513.074 163.949C509.608 157.244 507.875 149.205 507.875 139.83C507.875 130.426 509.622 122.386 513.116 115.71C516.611 109.006 521.369 103.878 527.392 100.327C533.415 96.7756 540.233 95 547.847 95C552.705 95 557.222 95.6818 561.398 97.0455C565.574 98.4091 569.295 100.412 572.562 103.054C575.83 105.668 578.514 108.878 580.616 112.685C582.747 116.463 584.139 120.781 584.793 125.639ZM599.271 183.466V96.1932H615.08V170.213H653.518V183.466H599.271ZM683.049 96.1932V183.466H667.239V96.1932H683.049ZM700.169 96.1932H719.516L745.425 159.432H746.447L772.357 96.1932H791.703V183.466H776.533V123.509H775.723L751.604 183.21H740.268L716.149 123.381H715.339V183.466H700.169V96.1932ZM820.126 183.466H803.251L833.976 96.1932H853.493L884.26 183.466H867.385L844.075 114.091H843.393L820.126 183.466ZM826.894 163.287H860.605L843.5 170.287L826.894 163.287Z" stroke="#454545" stroke-width="0.5"/>
<defs>
<linearGradient id="paint0_linear_61598_61" x1="530" y1="0" x2="530" y2="280" gradientUnits="userSpaceOnUse">
<stop stop-color="#84F0FF"/>
<stop offset="0.62898" stop-color="#C6F8FF" stop-opacity="0.465676"/>
<stop offset="1" stop-color="white" stop-opacity="0"/>
</linearGradient>
</defs>
</svg>
